<?xml version="1.0" encoding="UTF-8"?><svg width="380" height="250" viewBox="0 0 380 250" fill="none" xmlns="http://www.w3.org/2000/svg">
<g clip-path="url(#clip0_2_2)">
<rect width="380" height="250" fill="white"/>
<path d="M35.6758 237.864C35.6758 237.864 -7.0161 196.605 20.1695 148.088C47.3551 99.5705 83.8462 123.987 82.1007 67.5091C80.3553 11.0315 166.055 6.20471 193.328 22.5895C220.6 38.9742 220.428 58.6982 276.743 52.1886C333.059 45.679 343.798 100.085 329.137 127.803C308.335 167.134 386.816 160.672 337.338 237.96L35.6758 237.864Z" fill="url(#paint0_linear_2_2)" fill-opacity="0.6"/>
<path d="M205.507 86.1149C205.583 85.9624 205.472 85.7829 205.301 85.7829H73.3651C73.2789 85.7829 73.2 85.8312 73.1608 85.9079L30.967 168.5C30.889 168.653 30.9999 168.834 31.1713 168.834H164.005C164.092 168.834 164.172 168.785 164.211 168.707L205.507 86.1149Z" fill="#8BC5CE" stroke="#6EB7C2" stroke-width="1.37654"/>
<path d="M35.6883 164.726C35.6883 164.689 35.6973 164.652 35.7145 164.619L73.3492 92.8164C73.3892 92.7401 73.4684 92.6926 73.5545 92.6934L204.767 93.912C204.852 93.9127 204.929 93.9596 204.968 94.0341L242.285 164.62C242.303 164.653 242.312 164.69 242.312 164.728V236.082C242.312 236.209 242.209 236.312 242.082 236.312H35.9177C35.791 236.312 35.6883 236.209 35.6883 236.082V164.726Z" fill="#E2F0F2" stroke="#6EB7C2" stroke-width="1.37654"/>
<path d="M73.1654 86.1149C73.0891 85.9624 73.2001 85.7829 73.3706 85.7829H205.307C205.393 85.7829 205.472 85.8312 205.511 85.9079L247.705 168.5C247.783 168.653 247.672 168.834 247.501 168.834H114.667C114.58 168.834 114.5 168.785 114.461 168.707L73.1654 86.1149Z" fill="#C5E2E6" stroke="#6EB7C2" stroke-width="1.37654"/>
<path d="M73.1654 86.1149C73.0891 85.9624 73.2001 85.7829 73.3706 85.7829H205.307C205.393 85.7829 205.472 85.8312 205.511 85.9079L247.705 168.5C247.783 168.653 247.672 168.834 247.501 168.834H114.667C114.58 168.834 114.5 168.785 114.461 168.707L73.1654 86.1149Z" stroke="#6EB7C2" stroke-width="1.37654"/>
<path d="M188.875 138.872L195.547 133.815L188.875 138.872Z" fill="#E1F0F2"/>
<path d="M188.875 138.872L195.547 133.815" stroke="white" stroke-width="1.37654" stroke-linecap="round" stroke-linejoin="round"/>
<path d="M134.447 150.444H213.185L214.827 146.598L114.349 103.091L112.707 106.927L134.447 150.444Z" fill="white" stroke="#6EB7C2" stroke-width="1.37654" stroke-linecap="round" stroke-linejoin="round"/>
<path d="M136.09 146.598H214.827L193.087 103.091H114.35L136.09 146.598Z" fill="white" stroke="#6EB7C2" stroke-width="1.37654" stroke-linecap="round" stroke-linejoin="round"/>
<path d="M134.447 150.444L136.09 146.598H214.827L213.185 150.444H134.447Z" fill="#C5E2E6" stroke="#6EB7C2" stroke-width="1.37654" stroke-linecap="round" stroke-linejoin="round"/>
<path d="M190.463 106.927H176.532L181.084 115.938H195.015L190.463 106.927Z" fill="#E1F0F2" stroke="#C5E2E6" stroke-width="1.37654" stroke-linecap="round" stroke-linejoin="round"/>
<path d="M176.533 106.927H162.611L167.163 115.938H181.084L176.533 106.927Z" fill="#E1F0F2" stroke="#C5E2E6" stroke-width="1.37654" stroke-linecap="round" stroke-linejoin="round"/>
<path d="M162.611 106.927H148.681L153.232 115.938H167.163L162.611 106.927ZM148.681 106.927H134.759L139.302 115.938H153.232L148.681 106.927Z" fill="#E1F0F2" stroke="#C5E2E6" stroke-width="1.37654" stroke-linecap="round" stroke-linejoin="round"/>
<path d="M134.759 106.927H120.828L125.38 115.938H139.302L134.759 106.927ZM195.015 115.938H181.084L185.636 124.941H199.557L195.015 115.938Z" fill="#E1F0F2" stroke="#C5E2E6" stroke-width="1.37654" stroke-linecap="round" stroke-linejoin="round"/>
<path d="M181.084 115.938H167.163L171.705 124.941H185.636L181.084 115.938Z" fill="#E1F0F2" stroke="#C5E2E6" stroke-width="1.37654" stroke-linecap="round" stroke-linejoin="round"/>
<path d="M167.163 115.938H153.232L157.784 124.941H171.705L167.163 115.938ZM153.232 115.938H139.301L143.853 124.941H157.784L153.232 115.938Z" fill="#E1F0F2" stroke="#C5E2E6" stroke-width="1.37654" stroke-linecap="round" stroke-linejoin="round"/>
<path d="M139.302 115.938H125.38L129.932 124.941H143.853L139.302 115.938ZM199.557 124.941H185.636L190.178 133.944H204.109L199.557 124.941Z" fill="#E1F0F2" stroke="#C5E2E6" stroke-width="1.37654" stroke-linecap="round" stroke-linejoin="round"/>
<path d="M185.636 124.941H171.705L176.257 133.944H190.178L185.636 124.941Z" fill="#E1F0F2" stroke="#C5E2E6" stroke-width="1.37654" stroke-linecap="round" stroke-linejoin="round"/>
<path d="M171.705 124.941H157.784L162.326 133.944H176.257L171.705 124.941Z" fill="#E1F0F2" stroke="#C5E2E6" stroke-width="1.37654" stroke-linecap="round" stroke-linejoin="round"/>
<path d="M157.784 124.941H143.853L148.405 133.944H162.326L157.784 124.941Z" fill="#E1F0F2" stroke="#C5E2E6" stroke-width="1.37654" stroke-linecap="round" stroke-linejoin="round"/>
<path d="M143.853 124.941H129.932L134.474 133.944H148.405L143.853 124.941ZM204.109 133.944H190.178L194.73 142.946H208.661L204.109 133.944Z" fill="#E1F0F2" stroke="#C5E2E6" stroke-width="1.37654" stroke-linecap="round" stroke-linejoin="round"/>
<path d="M190.178 133.944H176.257L180.809 142.946H194.73L190.178 133.944Z" fill="#E1F0F2" stroke="#C5E2E6" stroke-width="1.37654" stroke-linecap="round" stroke-linejoin="round"/>
<path d="M176.257 133.944H162.327L166.878 142.946H180.809L176.257 133.944Z" fill="#E1F0F2" stroke="#C5E2E6" stroke-width="1.37654" stroke-linecap="round" stroke-linejoin="round"/>
<path d="M162.326 133.944H148.405L152.957 142.946H166.878L162.326 133.944Z" fill="#E1F0F2" stroke="#C5E2E6" stroke-width="1.37654" stroke-linecap="round" stroke-linejoin="round"/>
<path d="M148.405 133.944H134.475L139.026 142.946H152.957L148.405 133.944Z" fill="#E1F0F2" stroke="#C5E2E6" stroke-width="1.37654" stroke-linecap="round" stroke-linejoin="round"/>
<path d="M143.606 131.044L169.503 111.433M158.931 128.456L167.833 121.711L158.931 128.456ZM180.836 137.137L194.528 126.767L180.836 137.137ZM142.183 123.454L149.809 117.673L142.183 123.454Z" stroke="white" stroke-width="1.37654" stroke-linecap="round" stroke-linejoin="round"/>
<path d="M139.026 142.946L120.828 106.927H190.463" stroke="#6EB7C2" stroke-width="1.37654" stroke-linecap="round" stroke-linejoin="round"/>
<path d="M121 179H242V185H121V179Z" fill="#C5E2E6"/>
<path d="M36 187.5V179L75 104.5L77 108.5L36 187.5Z" fill="#C5E2E6"/>
<path d="M75 105L73 101.5L32 179H36.5L75 105Z" fill="#8BC5CE"/>
<path d="M30.5897 178.14V168.806C30.5897 168.661 30.6241 168.518 30.6902 168.388L72.4538 86.6764C72.7929 86.0129 73.7396 86.0088 74.0844 86.6693L116.748 168.385C116.817 168.517 116.853 168.662 116.853 168.81V178.28C116.853 179.232 115.58 179.554 115.127 178.716L73.6233 101.844C73.273 101.196 72.3395 101.204 72.0007 101.859L32.3224 178.561C31.8806 179.415 30.5897 179.101 30.5897 178.14Z" fill="#E2F0F2"/>
<path d="M30.5897 178.14V168.806C30.5897 168.661 30.6241 168.518 30.6902 168.388L72.4538 86.6764C72.7929 86.0129 73.7396 86.0088 74.0844 86.6693L116.748 168.385C116.817 168.517 116.853 168.662 116.853 168.81V178.28C116.853 179.232 115.58 179.554 115.127 178.716L73.6233 101.844C73.273 101.196 72.3395 101.204 72.0007 101.859L32.3224 178.561C31.8806 179.415 30.5897 179.101 30.5897 178.14Z" fill="#C5E2E6" fill-opacity="0.5"/>
<path d="M30.5897 178.14V168.806C30.5897 168.661 30.6241 168.518 30.6902 168.388L72.4538 86.6764C72.7929 86.0129 73.7396 86.0088 74.0844 86.6693L116.748 168.385C116.817 168.517 116.853 168.662 116.853 168.81V178.28C116.853 179.232 115.58 179.554 115.127 178.716L73.6233 101.844C73.273 101.196 72.3395 101.204 72.0007 101.859L32.3224 178.561C31.8806 179.415 30.5897 179.101 30.5897 178.14Z" stroke="#6EB7C2" stroke-width="1.37654"/>
<line x1="120.688" y1="177.781" x2="120.688" y2="237.431" stroke="#6EB7C2" stroke-width="1.37654"/>
<mask id="path-33-inside-1_2_2" fill="white">
<rect x="115.935" y="167.687" width="132.147" height="11.93" rx="0.917691"/>
</mask>
<rect x="115.935" y="167.687" width="132.147" height="11.93" rx="0.917691" fill="#E2F0F2" stroke="#6EB7C2" stroke-width="2.75307" mask="url(#path-33-inside-1_2_2)"/>
<path d="M31.5074 179.158H35.9408C36.2843 179.158 36.599 178.966 36.7564 178.661L75.0001 104.5" stroke="#6EB7C2" stroke-width="1.37654"/>
<path d="M63.3971 199.683C63.3971 191.954 69.6628 185.688 77.3919 185.688C85.121 185.688 91.3867 191.954 91.3867 199.683V236.62H63.3971V199.683Z" fill="#A8D3DA" stroke="#6EB7C2" stroke-width="1.37654"/>
<path d="M85.1922 206.23C85.1922 190.078 71.8857 189.252 68.215 189.252C83.8157 182.829 91.1572 190.629 91.1572 206.23V236.055L85.1922 236.055V206.23Z" fill="#6EB7C2" stroke="#6EB7C2" stroke-width="1.37654"/>
<path d="M176.124 223.904C185.075 223.904 192.331 216.538 192.331 207.452C192.331 198.366 185.075 191 176.124 191C167.174 191 159.918 198.366 159.918 207.452C159.918 216.538 167.174 223.904 176.124 223.904Z" fill="#A8D2DA"/>
<path d="M178.236 223.745C186.02 223.745 192.331 216.451 192.331 207.452C192.331 198.454 186.02 191.159 178.236 191.159C170.451 191.159 164.14 198.454 164.14 207.452C164.14 216.451 170.451 223.745 178.236 223.745Z" fill="#6EB7C2"/>
<path d="M176.124 191.043V223.904" stroke="#E1F0F2" stroke-width="1.88585" stroke-linecap="square"/>
<path d="M192.302 207.467H159.946" stroke="#E1F0F2" stroke-width="1.88585" stroke-linecap="square"/>
<path d="M192.266 207.518C192.266 216.244 184.991 223.349 175.977 223.349C166.963 223.349 159.688 216.244 159.688 207.518C159.688 198.793 166.963 191.688 175.977 191.688C184.991 191.688 192.266 198.793 192.266 207.518Z" stroke="#6EB7C2" stroke-width="1.37654"/>
<circle cx="290" cy="45" r="40.5" fill="#FECD6F" stroke="white" stroke-width="3"/>
<path d="M247.088 71.3105L247.05 71.7413C246.566 77.2429 241.714 81.3104 236.212 80.8264L235.351 80.7506C229.849 80.2666 224.997 84.3341 224.513 89.8357L224.437 90.6973C223.953 96.1989 219.101 100.266 213.599 99.7825L212.737 99.7067C207.236 99.2226 202.383 103.29 201.899 108.792L201.862 109.223" stroke="white" stroke-width="3" stroke-linecap="round" stroke-linejoin="round"/>
<path d="M255.361 78.4726L255.323 78.9034C254.839 84.405 249.986 88.4726 244.485 87.9885L243.623 87.9127C238.122 87.4287 233.269 91.4963 232.785 96.9979L232.709 97.8595C232.225 103.361 227.373 107.429 221.872 106.945L221.01 106.869C215.508 106.385 210.656 110.452 210.172 115.954L210.134 116.385" stroke="white" stroke-width="3" stroke-linecap="round" stroke-linejoin="round"/>
<path d="M262.063 86.4676L262.025 86.8984C261.541 92.4 256.688 96.4676 251.187 95.9835L250.325 95.9077C244.824 95.4237 239.971 99.4913 239.487 104.993L239.411 105.854C238.927 111.356 234.075 115.424 228.574 114.94L227.712 114.864C222.21 114.38 217.358 118.447 216.874 123.949L216.836 124.38" stroke="white" stroke-width="3" stroke-linecap="round" stroke-linejoin="round"/>
</g>
<defs>
<linearGradient id="paint0_linear_2_2" x1="255.39" y1="305.12" x2="128.845" y2="-64.0841" gradientUnits="userSpaceOnUse">
<stop stop-color="#CCCAE7"/>
<stop offset="0.966797" stop-color="#EEEDF7"/>
</linearGradient>
<clipPath id="clip0_2_2">
<rect width="380" height="250" fill="white"/>
</clipPath>
</defs>
</svg>
